<?xml version="1.0" encoding="utf-8"?>
<!-- Generator: Adobe Illustrator 28.3.0, SVG Export Plug-In . SVG Version: 6.00 Build 0)  -->
<svg version="1.1" id="Lag_1" xmlns="http://www.w3.org/2000/svg" xmlns:xlink="http://www.w3.org/1999/xlink" x="0px" y="0px"
	 viewBox="0 0 16 16" style="enable-background:new 0 0 16 16;" xml:space="preserve">
<style type="text/css">
	.st0{clip-path:url(#SVGID_00000148659635556573289430000017710568441707968676_);}
	.st1{fill:#E72558;}
	.st2{fill:#FFFFFF;}
</style>
<g>
	<defs>
		<rect id="SVGID_1_" x="-0.04" y="5.27" width="16.05" height="5.38"/>
	</defs>
	<clipPath id="SVGID_00000077286293509907919500000002823786025211654291_">
		<use xlink:href="#SVGID_1_"  style="overflow:visible;"/>
	</clipPath>
	<g style="clip-path:url(#SVGID_00000077286293509907919500000002823786025211654291_);">
		<path class="st1" d="M16.01,5.27H-0.04v5.38h16.05V5.27z"/>
		<path class="st2" d="M10.42,8.63c0.08,0,0.14-0.01,0.2-0.03c0.06-0.03,0.11-0.08,0.15-0.13h0.01l0.05,0.15h0.2V7.9
			c0.01-0.11-0.03-0.22-0.12-0.29c-0.1-0.06-0.21-0.11-0.33-0.1c-0.14,0-0.29,0.03-0.41,0.1l0.1,0.19c0.1-0.04,0.19-0.08,0.3-0.08
			c0.08-0.01,0.15,0.04,0.17,0.12c0,0.01,0,0.03,0,0.04v0.04l-0.18,0.01c-0.13,0-0.25,0.03-0.36,0.09
			c-0.09,0.05-0.13,0.15-0.12,0.26c-0.01,0.1,0.02,0.18,0.09,0.26C10.25,8.61,10.34,8.64,10.42,8.63z M10.45,8.16
			c0.05-0.03,0.13-0.05,0.19-0.04h0.12v0.09c0,0.05-0.02,0.12-0.06,0.16c-0.04,0.04-0.11,0.06-0.16,0.05c-0.1,0-0.14-0.04-0.14-0.13
			C10.39,8.24,10.41,8.19,10.45,8.16z"/>
		<path class="st2" d="M11.55,8.1C11.54,8,11.56,7.91,11.6,7.83c0.04-0.05,0.11-0.09,0.18-0.09c0.05,0,0.1,0.02,0.13,0.05
			c0.03,0.05,0.04,0.12,0.04,0.17v0.63h0.29v-0.7c0.01-0.11-0.03-0.22-0.1-0.29c-0.08-0.08-0.18-0.11-0.29-0.1
			c-0.06,0-0.14,0.01-0.19,0.04c-0.05,0.02-0.11,0.06-0.14,0.12h-0.02l-0.04-0.14h-0.23v1.08h0.29V8.1H11.55z"/>
		<path class="st2" d="M12.42,9c0.11,0.05,0.23,0.09,0.34,0.08c0.16,0.01,0.31-0.02,0.45-0.11c0.1-0.06,0.16-0.17,0.16-0.29
			c0.01-0.09-0.03-0.17-0.1-0.23C13.2,8.4,13.1,8.37,13.01,8.38h-0.18c-0.11,0-0.16-0.02-0.16-0.06c0-0.03,0.02-0.06,0.04-0.08h0.04
			h0.05c0.12,0.01,0.24-0.03,0.33-0.1c0.09-0.06,0.13-0.16,0.12-0.27c0-0.05-0.01-0.12-0.04-0.16l0.17-0.04V7.53h-0.38
			c-0.01,0-0.04-0.01-0.08-0.01c-0.03,0-0.08-0.01-0.11-0.01c-0.12-0.01-0.24,0.02-0.33,0.1c-0.08,0.06-0.12,0.17-0.12,0.27
			c0,0.06,0.01,0.13,0.05,0.19c0.03,0.05,0.08,0.1,0.14,0.12c-0.04,0.02-0.08,0.04-0.11,0.08c-0.04,0.05-0.04,0.14,0,0.19
			c0.02,0.03,0.04,0.05,0.08,0.06c-0.06,0.01-0.13,0.04-0.18,0.1c-0.04,0.04-0.06,0.11-0.06,0.16C12.29,8.87,12.34,8.96,12.42,9z
			 M12.81,7.69c0.11,0,0.16,0.06,0.16,0.19c0,0.05-0.01,0.1-0.04,0.14c-0.03,0.03-0.08,0.05-0.12,0.05c-0.04,0-0.1-0.01-0.12-0.05
			c-0.03-0.04-0.04-0.09-0.04-0.14C12.65,7.76,12.71,7.69,12.81,7.69z M12.6,8.66c0.04-0.02,0.09-0.04,0.14-0.04h0.15
			c0.05,0,0.11,0,0.16,0.02c0.03,0.01,0.05,0.04,0.05,0.09c0,0.05-0.04,0.1-0.09,0.12c-0.08,0.03-0.16,0.04-0.25,0.04
			c-0.05,0-0.12-0.01-0.16-0.03c-0.03-0.02-0.05-0.05-0.05-0.1C12.55,8.72,12.57,8.68,12.6,8.66z"/>
		<path class="st2" d="M9.26,8.1C9.25,8,9.27,7.91,9.32,7.83C9.36,7.78,9.42,7.75,9.5,7.75c0.12,0,0.17,0.08,0.17,0.24v0.62h0.29
			v-0.7c0.01-0.11-0.03-0.22-0.1-0.29C9.79,7.54,9.68,7.51,9.57,7.51C9.45,7.5,9.33,7.56,9.26,7.67H9.25l0.01-0.09
			c0-0.09,0.01-0.14,0.01-0.17v-0.3h-0.3v1.51h0.29V8.1z"/>
		<path class="st2" d="M8.39,8.63c0.06,0,0.12,0,0.18-0.02c0.05-0.01,0.1-0.03,0.14-0.06V8.29c-0.04,0.03-0.1,0.05-0.14,0.08
			C8.52,8.38,8.47,8.39,8.41,8.39c-0.15,0-0.23-0.11-0.23-0.31c0-0.22,0.08-0.32,0.23-0.32c0.04,0,0.09,0.01,0.12,0.02
			c0.04,0.01,0.09,0.03,0.13,0.04l0.09-0.23C8.64,7.54,8.53,7.52,8.41,7.52c-0.15-0.01-0.29,0.04-0.4,0.15
			c-0.1,0.12-0.15,0.27-0.14,0.42C7.89,8.44,8.06,8.63,8.39,8.63z"/>
		<path class="st2" d="M13.94,8.63c0.08,0,0.14,0,0.21-0.02c0.05-0.01,0.11-0.03,0.16-0.05V8.33c-0.05,0.03-0.12,0.05-0.18,0.06
			s-0.12,0.02-0.18,0.02c-0.08,0-0.14-0.02-0.19-0.08c-0.05-0.05-0.08-0.12-0.08-0.19h0.7V8c0.01-0.13-0.04-0.26-0.13-0.35
			c-0.1-0.09-0.23-0.14-0.35-0.13c-0.14-0.01-0.28,0.04-0.38,0.15c-0.1,0.12-0.15,0.27-0.14,0.42c-0.01,0.15,0.04,0.3,0.15,0.41
			C13.64,8.58,13.79,8.64,13.94,8.63z M13.75,7.78c0.04-0.04,0.1-0.06,0.15-0.06c0.05,0,0.11,0.02,0.15,0.06
			c0.04,0.04,0.06,0.11,0.05,0.17h-0.41C13.69,7.89,13.72,7.83,13.75,7.78z"/>
		<path class="st2" d="M6.32,7.53H6.03v1.08h0.29V7.53z"/>
		<path class="st2" d="M7.07,8.63c0.06,0,0.12,0,0.18-0.02C7.31,8.6,7.35,8.57,7.4,8.54V8.29C7.35,8.33,7.3,8.35,7.26,8.37
			C7.2,8.38,7.15,8.39,7.1,8.39c-0.15,0-0.23-0.11-0.23-0.31c0-0.22,0.08-0.32,0.23-0.32c0.04,0,0.09,0.01,0.12,0.02
			C7.26,7.79,7.3,7.81,7.34,7.82l0.09-0.23C7.32,7.54,7.21,7.52,7.1,7.52C6.94,7.51,6.81,7.56,6.71,7.66
			c-0.1,0.12-0.15,0.27-0.14,0.42C6.57,8.44,6.74,8.63,7.07,8.63z"/>
		<path class="st2" d="M2.96,7.11H2.67v1.51h0.29V7.11z"/>
		<path class="st2" d="M3.53,8.63c0.08,0,0.14-0.01,0.2-0.03C3.8,8.56,3.84,8.52,3.89,8.47H3.9l0.05,0.15h0.2V7.9
			c0.01-0.11-0.03-0.22-0.12-0.29C3.94,7.54,3.82,7.5,3.7,7.51c-0.14,0-0.29,0.03-0.41,0.1l0.1,0.19c0.1-0.04,0.19-0.08,0.3-0.08
			c0.08-0.01,0.15,0.04,0.17,0.12c0,0.01,0,0.03,0,0.04v0.04L3.68,7.94c-0.13,0-0.25,0.03-0.36,0.09C3.23,8.08,3.19,8.18,3.2,8.28
			c-0.01,0.1,0.02,0.18,0.09,0.26C3.36,8.61,3.45,8.64,3.53,8.63z M3.56,8.16c0.05-0.03,0.13-0.05,0.19-0.04h0.12v0.09
			c0,0.05-0.02,0.12-0.06,0.16S3.7,8.43,3.65,8.42c-0.1,0-0.14-0.04-0.14-0.13C3.5,8.24,3.52,8.19,3.56,8.16z"/>
		<path class="st2" d="M1.82,8.65c0-0.01,0-0.06-0.01-0.16h0.01C1.89,8.58,2,8.63,2.12,8.63c0.08,0,0.15-0.02,0.21-0.06
			C2.4,8.51,2.45,8.44,2.47,8.37c0.04-0.1,0.06-0.19,0.06-0.3C2.55,7.93,2.5,7.78,2.43,7.66c-0.06-0.1-0.18-0.15-0.3-0.15
			C2.01,7.5,1.89,7.56,1.83,7.67H1.82L1.76,7.53H1.53v1.56h0.29V8.65z M1.82,8.04c0-0.08,0.01-0.15,0.05-0.23
			c0.04-0.04,0.1-0.08,0.16-0.06c0.06,0,0.12,0.02,0.15,0.08C2.21,7.9,2.23,7.98,2.23,8.06c0,0.22-0.06,0.32-0.19,0.32
			c-0.06,0-0.13-0.02-0.16-0.08C1.84,8.23,1.83,8.14,1.83,8.06V8.04H1.82z"/>
		<path class="st2" d="M6.18,7.4c0.04,0,0.09-0.01,0.12-0.04c0.03-0.03,0.04-0.06,0.04-0.11c0-0.1-0.05-0.14-0.16-0.14
			c-0.11,0-0.16,0.04-0.16,0.14C6.02,7.35,6.08,7.4,6.18,7.4z"/>
		<path class="st2" d="M5.27,8.27c-0.01,0.1,0.02,0.19,0.08,0.27c0.06,0.06,0.16,0.1,0.26,0.09c0.1,0,0.18-0.01,0.27-0.05V8.36
			C5.82,8.38,5.75,8.39,5.69,8.39c-0.03,0-0.06-0.01-0.1-0.03C5.57,8.34,5.55,8.3,5.56,8.26V7.75h0.3V7.53h-0.3V7.3H5.37L5.29,7.53
			l-0.16,0.1v0.13h0.14V8.27z"/>
		<path class="st2" d="M4.4,8.06c0.05,0.04,0.12,0.08,0.18,0.1C4.64,8.18,4.69,8.2,4.72,8.22C4.75,8.23,4.78,8.25,4.8,8.27
			C4.81,8.28,4.82,8.3,4.82,8.33c0,0.06-0.05,0.1-0.16,0.1c-0.06,0-0.12-0.01-0.18-0.02C4.41,8.39,4.35,8.37,4.29,8.34v0.25
			c0.05,0.02,0.1,0.03,0.15,0.04c0.06,0.01,0.13,0.02,0.2,0.01C4.77,8.65,4.9,8.62,4.99,8.55C5.07,8.49,5.11,8.4,5.11,8.29
			c0-0.04-0.01-0.1-0.03-0.14C5.06,8.11,5.02,8.08,4.99,8.05C4.94,8,4.87,7.97,4.81,7.95C4.75,7.93,4.68,7.9,4.63,7.86
			C4.61,7.85,4.58,7.82,4.58,7.8c0-0.04,0.04-0.08,0.13-0.08c0.05,0,0.1,0.01,0.14,0.02C4.91,7.77,4.95,7.78,5,7.8l0.09-0.22
			C4.97,7.53,4.84,7.5,4.71,7.5C4.61,7.49,4.49,7.52,4.4,7.57C4.33,7.63,4.28,7.7,4.29,7.8c0,0.05,0.01,0.1,0.02,0.14
			C4.34,7.99,4.37,8.02,4.4,8.06z"/>
	</g>
</g>
</svg>
