<?xml version="1.0" encoding="UTF-8"?>
<svg id="Lag_2" data-name="Lag 2" xmlns="http://www.w3.org/2000/svg" viewBox="0 0 28 28">
  <defs>
    <style>
      .cls-1 {
        fill: #ff1054;
        stroke-width: 0px;
      }
    </style>
  </defs>
  <g id="Lag_3" data-name="Lag 3">
    <g>
      <path class="cls-1" d="M.98,5.54c-.66-.62-.98-1.38-.98-2.29S.33,1.55.98.93c.66-.62,1.5-.93,2.53-.93s1.85.31,2.5.93c.66.62.98,1.39.98,2.33s-.33,1.67-.98,2.29c-.66.62-1.49.93-2.5.93s-1.88-.31-2.53-.93ZM6.45,9.08v18.92H.55V9.08h5.9Z"/>
      <path class="cls-1" d="M26.07,10.95c1.29,1.41,1.93,3.36,1.93,5.83v10.89h-5.6v-10.12c0-1.25-.32-2.22-.96-2.9-.64-.69-1.49-1.04-2.57-1.04s-1.93.34-2.57,1.04c-.64.69-.96,1.66-.96,2.9v10.12h-5.63V9.03h5.63v2.47c.57-.82,1.34-1.47,2.31-1.95.97-.48,2.05-.72,3.26-.72,2.15,0,3.87.71,5.15,2.12Z"/>
    </g>
  </g>
</svg>