<?xml version="1.0" encoding="UTF-8"?>
<svg id="Lag_2" data-name="Lag 2" xmlns="http://www.w3.org/2000/svg" viewBox="0 0 38.03 27.16">
  <defs>
    <style>
      .cls-1 {
        fill: #f6f6f6;
        stroke-width: 0px;
      }
    </style>
  </defs>
  <g id="Lag_2-2" data-name="Lag 2">
    <path class="cls-1" d="M37.71,7.28c-.23-2.31-.74-4.86-2.59-6.2C33.69.04,31.8,0,30.04,0c-3.72,0-7.44,0-11.15,0-3.57,0-7.15,0-10.72.01-1.49,0-2.94-.12-4.33.54-1.19.57-2.12,1.65-2.68,2.85C.37,5.09.21,6.98.12,8.84c-.17,3.37-.15,6.75.05,10.12.15,2.46.54,5.17,2.39,6.74,1.64,1.39,3.96,1.46,6.09,1.46,6.77,0,13.53.01,20.3.02.87,0,1.77-.01,2.66-.11,1.74-.19,3.4-.7,4.52-2.02,1.13-1.33,1.42-3.18,1.59-4.94.42-4.26.41-8.55-.01-12.81ZM14.98,19.55V7.62l10.09,5.97-10.09,5.97Z"/>
  </g>
</svg>