<?xml version="1.0" encoding="UTF-8"?>
<svg id="Lag_2" data-name="Lag 2" xmlns="http://www.w3.org/2000/svg" viewBox="0 0 29.34 27.94">
  <defs>
    <style>
      .cls-1 {
        fill: #ff1054;
        stroke-width: 0px;
      }
    </style>
  </defs>
  <g id="Lag_3" data-name="Lag 3">
    <g>
      <path class="cls-1" d="M22,0H7.34C3.29,0,0,3.28,0,7.3v13.34c0,4.03,3.29,7.3,7.34,7.3h14.66c4.05,0,7.34-3.28,7.34-7.3V7.3c0-4.03-3.29-7.3-7.34-7.3ZM2.59,7.3c0-2.61,2.13-4.73,4.75-4.73h14.66c2.62,0,4.75,2.12,4.75,4.73v13.34c0,2.61-2.13,4.73-4.75,4.73H7.34c-2.62,0-4.75-2.12-4.75-4.73V7.3Z"/>
      <path class="cls-1" d="M14.67,20.76c3.77,0,6.83-3.05,6.83-6.79s-3.06-6.79-6.83-6.79-6.83,3.05-6.83,6.79,3.06,6.79,6.83,6.79ZM14.67,9.75c2.34,0,4.24,1.89,4.24,4.22s-1.9,4.22-4.24,4.22-4.24-1.89-4.24-4.22,1.9-4.22,4.24-4.22Z"/>
      <path class="cls-1" d="M22.13,8.27c1.01,0,1.84-.82,1.84-1.83s-.82-1.83-1.84-1.83-1.84.82-1.84,1.83.82,1.83,1.84,1.83Z"/>
    </g>
  </g>
</svg>